<?xml version="1.0" encoding="utf-8"?>
<!DOCTYPE svg PUBLIC "-//W3C//DTD SVG 1.1//EN" "http://www.w3.org/Graphics/SVG/1.1/DTD/svg11.dtd">
<svg version="1.1" id="图形" xmlns="http://www.w3.org/2000/svg" xmlns:xlink="http://www.w3.org/1999/xlink" x="0px" y="0px" width="1024px" height="1024px" viewBox="0 0 1024 1024" enable-background="new 0 0 1024 1024" xml:space="preserve">
  <path  d="M61.081147-145.901583c0 298.400181 0 596.237543 0 894.359384 198.730157 0 397.205511 0 596.050278 0 0-39.536458 0-79.002308 0-118.849852-159.069879 0-317.818439 0-476.884224 0 0-219.012086 0-437.643502 0-656.515395 218.782865 0 437.283298 0 656.387481 0 0 158.963455 0 317.668013 0 476.752218 39.888476 0 79.175247 0 118.857015 0 0-198.518333 0-396.942521 0-595.747379C657.351436-145.901583 359.397417-145.901583 61.081147-145.901583zM588.832899 297.783519c-28.059056 28.094872-55.874565 55.94415-83.914178 84.018555 0.852414 0.913812 1.928932 2.13871 3.079128 3.289929C625.567545 502.669886 743.139288 620.245721 860.72024 737.812347c11.707646 11.7056 25.327852 14.210653 38.07313 6.812149 2.984984-1.732457 5.691629-4.096295 8.163937-6.53688 12.831236-12.666484 25.581632-25.414833 38.289048-38.20616 14.259772-14.353916 14.309914-31.680537 0.059352-45.934169C827.50679 536.121765 709.684338 418.319779 591.860862 300.518816 590.82323 299.481184 589.682243 298.546905 588.832899 297.783519zM557.856397 241.377858c-45.581128-9.459442-91.345428-18.957771-137.978515-28.636201 9.671267 46.62183 19.200294 92.557022 28.624944 137.987724C484.869083 314.363126 521.270131 277.964124 557.856397 241.377858z" transform="translate(0, 812) scale(1, -1)"/>
</svg>
