<?xml version="1.0" encoding="utf-8"?>
<!DOCTYPE svg PUBLIC "-//W3C//DTD SVG 1.1//EN" "http://www.w3.org/Graphics/SVG/1.1/DTD/svg11.dtd">
<svg version="1.1" id="图形" xmlns="http://www.w3.org/2000/svg" xmlns:xlink="http://www.w3.org/1999/xlink" x="0px" y="0px" width="1024px" height="1024px" viewBox="0 0 1024 1024" enable-background="new 0 0 1024 1024" xml:space="preserve">
  <path d="M760.384 370.624l0 103.616c0 0-0.032 241.728-241.728 241.728-241.696 0-241.728-241.728-241.728-241.728l0-103.616L173.312 370.624l0-483.488L864-112.864 864 370.624 760.384 370.624zM553.184 103.936l0-113.184-69.056 0 0 113.184c-20.544 11.968-34.528 34.016-34.528 59.488 0 38.176 30.944 69.088 69.056 69.088 38.112 0 69.056-30.912 69.056-69.088C587.744 137.952 573.76 115.904 553.184 103.936M691.328 370.656 345.984 370.656l0 103.136c0.384 28.928 10.56 173.12 172.672 173.12s172.288-144.192 172.672-172.672L691.328 370.656z" transform="translate(0, 812) scale(1, -1)"/>
</svg>
