<?xml version="1.0" encoding="utf-8"?>
<!DOCTYPE svg PUBLIC "-//W3C//DTD SVG 1.1//EN" "http://www.w3.org/Graphics/SVG/1.1/DTD/svg11.dtd">
<svg version="1.1" id="图形" xmlns="http://www.w3.org/2000/svg" xmlns:xlink="http://www.w3.org/1999/xlink" x="0px" y="0px" width="1024px" height="1024px" viewBox="0 0 1024 1024" enable-background="new 0 0 1024 1024" xml:space="preserve">
  <path fill="#272636" d="M546.9184 146.5024c-48.2816 0-96.5632 18.3808-133.3248 55.1424-9.984 9.984-9.984 26.2144 0 36.1984s26.2144 9.984 36.1984 0c53.5552-53.5552 140.6464-53.5552 194.2016 0l186.1632 186.1632c53.5552 53.5552 53.5552 140.6464 0 194.2016s-140.6464 53.5552-194.2016 0l-157.0816-157.0816c-9.984-9.984-26.2144-9.984-36.1984 0s-9.984 26.2144 0 36.1984l157.0816 157.0816c73.5232 73.5232 193.1264 73.5232 266.5984 0s73.5232-193.1264 0-266.5984l-186.1632-186.1632c-36.7616-36.7616-85.0432-55.1424-133.3248-55.1424zM239.7184-160.6976c-48.2816 0-96.5632 18.3808-133.3248 55.1424-73.5232 73.5232-73.5232 193.1264 0 266.5984l186.1632 186.1632c73.5232 73.5232 193.1264 73.5232 266.5984 0 9.984-9.984 9.984-26.2144 0-36.1984s-26.2144-9.984-36.1984 0c-53.5552 53.5552-140.6464 53.5552-194.2016 0l-186.1632-186.1632c-53.5552-53.5552-53.5552-140.6464 0-194.2016s140.6464-53.5552 194.2016 0l157.0816 157.0816c9.984 9.984 26.2144 9.984 36.1984 0s9.984-26.2144 0-36.1984l-157.0816-157.0816c-36.7616-36.7616-85.0432-55.1424-133.3248-55.1424z" transform="translate(0, 812) scale(1, -1)"/>
</svg>
